<?xml version="1.0" standalone="no"?>
<!DOCTYPE svg PUBLIC "-//W3C//DTD SVG 20010904//EN"
 "http://www.w3.org/TR/2001/REC-SVG-20010904/DTD/svg10.dtd">
<svg version="1.0" xmlns="http://www.w3.org/2000/svg"
 width="700.000000pt" height="700.000000pt" viewBox="0 0 700.000000 700.000000"
 preserveAspectRatio="xMidYMid meet">
<metadata>
Created by potrace 1.14, written by Peter Selinger 2001-2017
</metadata>
<g transform="translate(0.000000,700.000000) scale(0.100000,-0.100000)"
fill="#000000" stroke="none">
<path d="M817 6980 c-205 -43 -373 -134 -518 -280 -152 -153 -242 -324 -284
-540 -12 -64 -14 -436 -14 -2650 0 -1525 4 -2602 10 -2640 48 -340 270 -631
592 -780 72 -33 111 -46 232 -77 17 -4 1205 -9 2640 -10 2675 -2 2622 -3 2770
31 46 10 124 40 188 72 242 121 433 340 516 594 52 159 50 27 48 2830 -1 1433
-6 2619 -10 2635 -4 17 -13 48 -18 70 -84 332 -343 607 -671 715 -159 52 -31
50 -2812 49 -2467 0 -2585 -1 -2669 -19z m1833 -1434 c571 -32 985 -395 1065
-936 4 -25 9 -58 12 -75 7 -46 6 -1970 -2 -2055 -36 -397 -245 -724 -572 -893
-78 -41 -254 -102 -324 -112 -24 -4 -69 -11 -99 -16 -99 -15 -424 -3 -525 19
-502 112 -822 474 -872 987 -9 91 -9 1978 0 2070 33 343 184 615 442 800 119
86 292 162 410 182 17 3 63 11 102 17 40 7 110 14 155 15 46 1 84 4 86 6 2 2
9 2 15 0 7 -2 55 -6 107 -9z m2904 -106 c-2 -94 -15 -667 -19 -825 -2 -82 -7
-276 -10 -430 -3 -154 -8 -352 -10 -440 -3 -88 -7 -270 -10 -405 -11 -499 -16
-654 -19 -658 -6 -5 -436 -5 -441 0 -2 2 -7 112 -10 243 -3 132 -7 328 -10
435 -3 107 -7 290 -10 405 -7 316 -16 734 -20 875 -2 69 -6 274 -10 455 -4
182 -8 347 -9 367 l-3 37 291 -2 291 -2 -1 -55z m-54 -3336 c115 -54 175 -158
173 -298 -2 -138 -71 -249 -190 -303 -51 -23 -69 -26 -192 -28 -166 -2 -237
12 -304 61 -102 74 -149 202 -125 336 15 80 51 138 123 196 67 53 109 61 300
59 150 -2 175 -5 215 -23z"/>
<path d="M2360 5116 c-269 -56 -467 -250 -536 -526 -18 -71 -19 -129 -19
-1090 0 -968 1 -1018 19 -1090 71 -279 263 -468 534 -525 85 -18 273 -17 353
2 267 61 462 262 525 538 17 75 18 147 18 1080 0 996 0 1000 -22 1085 -37 143
-92 242 -191 340 -92 92 -180 143 -298 176 -79 22 -298 27 -383 10z m243
-1301 c192 -26 298 -210 236 -411 -38 -123 -137 -194 -285 -202 -132 -7 -228
30 -291 113 -47 62 -62 117 -59 216 5 126 48 197 155 257 27 16 147 40 176 36
11 -1 41 -5 68 -9z"/>
</g>
</svg>
